<?xml version="1.0" encoding="utf-8"?>
<!-- Generator: Adobe Illustrator 18.1.0, SVG Export Plug-In . SVG Version: 6.00 Build 0)  -->
<!DOCTYPE svg PUBLIC "-//W3C//DTD SVG 1.1//EN" "http://www.w3.org/Graphics/SVG/1.1/DTD/svg11.dtd">
<svg version="1.1" id="Layer_1" xmlns="http://www.w3.org/2000/svg" xmlns:xlink="http://www.w3.org/1999/xlink" x="0px" y="0px"
	 viewBox="188.3 294.8 235.4 202.3" enable-background="new 188.3 294.8 235.4 202.3" xml:space="preserve">
<g id="Layer_1_1_" display="none">
	
		<image display="inline" overflow="visible" enable-background="new    " width="512" height="512" xlink:href="8A3ECD660CBF2B89.png"  transform="matrix(1 0 0 1 45.4417 154.6262)">
	</image>
</g>
<g id="Layer_2">
	<path fill="none" stroke="#FFFFFF" stroke-width="18" stroke-miterlimit="10" d="M346.9,480.8H232.4c-15.9,0-28.8-12.9-28.8-28.8
		V337.2c0-15.9,12.9-28.8,28.8-28.8h114.5c15.9,0,28.8,12.9,28.8,28.8V452C375.7,467.9,362.8,480.8,346.9,480.8z"/>
	<path fill="#FFFFFF" d="M353.4,352v-25.4c0,0-60.9-15.9-56.4,44.1h-19.9v26.3H297l-0.3,74.7h34.6l-0.3-75h22.4v-25.1l-23.3-0.3
		c0,0-2.1-19,11.3-19L353.4,352z"/>
</g>
</svg>
