<?xml version="1.0" encoding="utf-8"?>
<!-- Generator: Adobe Illustrator 18.1.0, SVG Export Plug-In . SVG Version: 6.00 Build 0)  -->
<!DOCTYPE svg PUBLIC "-//W3C//DTD SVG 1.1//EN" "http://www.w3.org/Graphics/SVG/1.1/DTD/svg11.dtd">
<svg version="1.1" xmlns="http://www.w3.org/2000/svg" xmlns:xlink="http://www.w3.org/1999/xlink" x="0px" y="0px"
	 viewBox="0 0 204.7 242.4" enable-background="new 0 0 204.7 242.4" xml:space="preserve">
<g id="Layer_1" display="none">
</g>
<g id="Layer_3">
</g>
<g id="Layer_2">
	<line fill="none" stroke="#939597" stroke-width="4" stroke-miterlimit="10" x1="56.9" y1="20.1" x2="57.2" y2="211.4"/>
	<path fill="none" stroke="#000000" stroke-width="9" stroke-miterlimit="10" d="M160.9,211.4H42.6c-8.9,0-16.1-7.2-16.1-16.1V34.9
		c0-8.9,7.2-16.1,16.1-16.1h118.3c8.9,0,16.1,7.2,16.1,16.1v160.4C177,204.2,169.8,211.4,160.9,211.4z"/>
	<g>
		<g>
			<path d="M13.6,49.4c8.6,0,17.2,0,25.9,0c4.8,0,4.8-7.5,0-7.5c-8.6,0-17.2,0-25.9,0C8.7,41.9,8.7,49.4,13.6,49.4L13.6,49.4z"/>
		</g>
	</g>
	<g>
		<g>
			<path d="M11.9,83.4c8.6,0,17.2,0,25.9,0c4.8,0,4.8-7.5,0-7.5c-8.6,0-17.2,0-25.9,0C7,75.9,7,83.4,11.9,83.4L11.9,83.4z"/>
		</g>
	</g>
	<g>
		<g>
			<path d="M11.9,118.1c8.6,0,17.2,0,25.9,0c4.8,0,4.8-7.5,0-7.5c-8.6,0-17.2,0-25.9,0C7,110.6,7,118.1,11.9,118.1L11.9,118.1z"/>
		</g>
	</g>
	<g>
		<g>
			<path d="M11.9,152.5c8.6,0,17.2,0,25.9,0c4.8,0,4.8-7.5,0-7.5c-8.6,0-17.2,0-25.9,0C7,145,7,152.5,11.9,152.5L11.9,152.5z"/>
		</g>
	</g>
	<g>
		<g>
			<path d="M11.9,187.1c8.6,0,17.2,0,25.9,0c4.8,0,4.8-7.5,0-7.5c-8.6,0-17.2,0-25.9,0C7,179.6,7,187.1,11.9,187.1L11.9,187.1z"/>
		</g>
	</g>
	<circle cx="40.7" cy="114.3" r="6.6"/>
	<circle cx="40.7" cy="148.8" r="6.6"/>
	<circle cx="40.7" cy="183.4" r="6.6"/>
	<circle cx="40.7" cy="79.7" r="6.6"/>
	<circle cx="40.7" cy="45.6" r="6.6"/>
	<g>
		<g>
			<path d="M103.5,150.8c18.3,0,36.6,0,54.9,0c4.8,0,4.8-7.5,0-7.5c-18.3,0-36.6,0-54.9,0C98.7,143.3,98.7,150.8,103.5,150.8
				L103.5,150.8z"/>
		</g>
	</g>
	<g>
		<g>
			<path d="M103.5,118.1c18.3,0,36.6,0,54.9,0c4.8,0,4.8-7.5,0-7.5c-18.3,0-36.6,0-54.9,0C98.7,110.6,98.7,118.1,103.5,118.1
				L103.5,118.1z"/>
		</g>
	</g>
	<g>
		<g>
			<path d="M103.5,85.9c18.3,0,36.6,0,54.9,0c4.8,0,4.8-7.5,0-7.5c-18.3,0-36.6,0-54.9,0C98.7,78.4,98.7,85.9,103.5,85.9L103.5,85.9
				z"/>
		</g>
	</g>
	<g>
		<g>
			<path d="M70.9,148.6c2.4,2.3,4.8,4.6,7.2,6.9c1.8,1.7,4.5,1.7,6.4,0c3.7-3.4,7.4-6.8,11.1-10.2c4.3-3.9-2.1-10.3-6.4-6.4
				c-3.7,3.4-7.4,6.8-11.1,10.2c2.1,0,4.2,0,6.4,0c-2.4-2.3-4.8-4.6-7.2-6.9C73.1,138.2,66.7,144.6,70.9,148.6L70.9,148.6z"/>
		</g>
	</g>
	<g>
		<g>
			<path d="M70.9,115.7c2.4,2.3,4.8,4.6,7.2,6.9c1.8,1.7,4.5,1.7,6.4,0c3.7-3.4,7.4-6.8,11.1-10.2c4.3-3.9-2.1-10.3-6.4-6.4
				c-3.7,3.4-7.4,6.8-11.1,10.2c2.1,0,4.2,0,6.4,0c-2.4-2.3-4.8-4.6-7.2-6.9C73.1,105.3,66.7,111.7,70.9,115.7L70.9,115.7z"/>
		</g>
	</g>
	<g>
		<g>
			<path d="M70.9,83.5c2.4,2.3,4.8,4.6,7.2,6.9c1.8,1.7,4.5,1.7,6.4,0c3.7-3.4,7.4-6.8,11.1-10.2c4.3-3.9-2.1-10.3-6.4-6.4
				c-3.7,3.4-7.4,6.8-11.1,10.2c2.1,0,4.2,0,6.4,0c-2.4-2.3-4.8-4.6-7.2-6.9C73.1,73.1,66.7,79.5,70.9,83.5L70.9,83.5z"/>
		</g>
	</g>
	<g>
		<g>
			<path d="M68.4,34.7c3.6,3.8,7.2,7.6,10.8,11.3c2.7,2.8,6.9-1.4,4.2-4.2c-3.6-3.8-7.2-7.6-10.8-11.3
				C69.9,27.6,65.7,31.9,68.4,34.7L68.4,34.7z"/>
		</g>
	</g>
	<g>
		<g>
			<path d="M85.7,61.1c0-5.7,0-11.4,0-17c0-3.9-6-3.9-6,0c0,5.7,0,11.4,0,17C79.7,65,85.7,65,85.7,61.1L85.7,61.1z"/>
		</g>
	</g>
	<path d="M46,188.2l14.4-1.8c1.3-0.2,2.4,0.9,2.4,2.2c0,3-0.6,8.1-3.6,11.5c-0.8,0.9-2.3,1-3.1,0.1c-2.6-2.6-8.1-7.9-10.6-10.4
		C44.9,189.2,45.3,188.3,46,188.2z"/>
	<path d="M72.8,185.1c0,0,5.4,4.3,1.2,6.9c0,0,3.3,6.7-3.8,11.5c0,0,1.1,4.4-5,5l87.3,28.6l5.4-4.7l3.7-11.9l-1.5-6.9L72.8,185.1z"
		/>
	<g>
		<g>
			<path d="M92.2,30.4C88.6,34.2,85,38,81.4,41.8c-2.7,2.8,1.6,7,4.2,4.2c3.6-3.8,7.2-7.6,10.8-11.3C99.1,31.9,94.9,27.6,92.2,30.4
				L92.2,30.4z"/>
		</g>
	</g>
	<ellipse fill="none" stroke="#000000" stroke-width="6" stroke-miterlimit="10" cx="111" cy="47.7" rx="12.8" ry="15"/>
	<g>
		<g>
			<path d="M130.7,33.7c-1.7,10-3.1,31.8,11.9,32c14.5,0.2,15.3-20.9,14.5-31.2c-0.3-3.8-6.3-3.9-6,0c0.5,6.4,1.3,24.1-7.7,25.1
				c-10,1.1-7.9-18.6-6.9-24.3C137.2,31.5,131.4,29.9,130.7,33.7L130.7,33.7z"/>
		</g>
	</g>
	<g>
		<g>
			<path d="M105.3,180.1c18.3,0,36.6,0,54.9,0c4.8,0,4.8-7.5,0-7.5c-18.3,0-36.6,0-54.9,0C100.5,172.6,100.5,180.1,105.3,180.1
				L105.3,180.1z"/>
		</g>
	</g>
	<g>
		<g>
			<path d="M72.7,177.9c2.4,2.3,4.8,4.6,7.2,6.9c1.8,1.7,4.5,1.7,6.4,0c3.7-3.4,7.4-6.8,11.1-10.2c4.3-3.9-2.1-10.3-6.4-6.4
				c-3.7,3.4-7.4,6.8-11.1,10.2c2.1,0,4.2,0,6.4,0c-2.4-2.3-4.8-4.6-7.2-6.9C74.9,167.5,68.5,173.8,72.7,177.9L72.7,177.9z"/>
		</g>
	</g>
</g>
</svg>
